<?xml version="1.0" encoding="UTF-8"?>
<svg width="769px" height="72px" viewBox="0 0 769 72" version="1.1" xmlns="http://www.w3.org/2000/svg" xmlns:xlink="http://www.w3.org/1999/xlink">
    <title>Group</title>
    <g id="BARE-Camper" stroke="none" stroke-width="1" fill="none" fill-rule="evenodd">
        <g id="Frame-Copy" transform="translate(-148, -146)" fill="#000000">
            <g id="Group" transform="translate(148, 146)">
                <g id="BARE-CAMPER" transform="translate(-18, -36)" fill-rule="nonzero">
                    <path d="M63.3408622,39.264 C66.7035288,39.264 69.7913622,39.9591667 72.6043622,41.3495 C75.4173622,42.7398333 77.6483622,44.696 79.2973622,47.218 C80.9463622,49.74 81.7708622,52.553 81.7708622,55.657 C81.7708622,63.8696667 78.0525288,69.043 70.6158622,71.177 L70.6158622,71.565 C79.0871955,73.505 83.3228622,79.0663333 83.3228622,88.249 C83.3228622,91.741 82.4660288,94.8288333 80.7523622,97.5125 C79.0386955,100.196167 76.6945288,102.281667 73.7198622,103.769 C70.7451955,105.256333 67.4795288,106 63.9228622,106 L18.9148622,106 L18.9148622,39.264 L63.3408622,39.264 Z M40.3518622,65.26 L55.0958622,65.26 C56.5185288,65.26 57.6986955,64.7588333 58.6363622,63.7565 C59.5740288,62.7541667 60.0428622,61.5093333 60.0428622,60.022 L60.0428622,59.052 C60.0428622,57.6293333 59.5578622,56.4168333 58.5878622,55.4145 C57.6178622,54.4121667 56.4538622,53.911 55.0958622,53.911 L40.3518622,53.911 L40.3518622,65.26 Z M40.3518622,90.48 L56.6478622,90.48 C58.0705288,90.48 59.2506955,89.9788333 60.1883622,88.9765 C61.1260288,87.9741667 61.5948622,86.7293333 61.5948622,85.242 L61.5948622,84.272 C61.5948622,82.7846667 61.1260288,81.5398333 60.1883622,80.5375 C59.2506955,79.5351667 58.0705288,79.034 56.6478622,79.034 L40.3518622,79.034 L40.3518622,90.48 Z" id="Shape"></path>
                    <polygon id="Shape-Copy" points="134.692006 106 121.291058 82.1952712 107.400605 106 84.479558 106 121.291058 39.264 158.102558 106"></polygon>
                    <polygon id="Shape-Copy-2" points="446.692006 106 433.291058 82.1952712 419.400605 106 396.479558 106 433.291058 39.264 470.102558 106"></polygon>
                    <path d="M228.613094,59.731 C228.613094,63.805 227.513761,67.491 225.315094,70.789 C223.116427,74.087 219.915427,76.512 215.712094,78.064 L230.553094,106 L206.497094,106 L194.663094,81.653 L186.709094,81.653 L186.709094,106 L165.272094,106 L165.272094,39.264 L206.109094,39.264 C210.894427,39.264 214.984594,40.1855 218.379594,42.0285 C221.774594,43.8715 224.328927,46.3611667 226.042594,49.4975 C227.756261,52.6338333 228.613094,56.045 228.613094,59.731 Z M206.788094,60.604 C206.788094,58.858 206.206094,57.403 205.042094,56.239 C203.878094,55.075 202.455427,54.493 200.774094,54.493 L186.709094,54.493 L186.709094,66.812 L200.774094,66.812 C202.455427,66.812 203.878094,66.2138333 205.042094,65.0175 C206.206094,63.8211667 206.788094,62.35 206.788094,60.604 Z" id="Shape"></path>
                    <polygon id="Path" points="239.77521 39.264 297.49021 39.264 297.49021 55.269 261.21221 55.269 261.21221 64.484 292.25221 64.484 292.25221 79.81 261.21221 79.81 261.21221 89.995 298.16921 89.995 298.16921 106 239.77521 106"></polygon>
                    <path d="M363.000442,38.1 C372.894442,38.1 380.719109,40.5735 386.474442,45.5205 C392.229775,50.4675 395.107442,57.5323333 395.107442,66.715 L374.640442,66.715 C374.640442,62.835 373.621942,59.7633333 371.584942,57.5 C369.547942,55.2366667 366.654109,54.105 362.903442,54.105 C358.570775,54.105 355.385942,55.463 353.348942,58.179 C351.311942,60.895 350.293442,64.678 350.293442,69.528 L350.293442,75.736 C350.293442,80.5213333 351.311942,84.2881667 353.348942,87.0365 C355.385942,89.7848333 358.506109,91.159 362.709442,91.159 C366.848109,91.159 369.984442,90.092 372.118442,87.958 C374.252442,85.824 375.319442,82.817 375.319442,78.937 L395.107442,78.937 C395.107442,88.055 392.310609,95.039 386.716942,99.889 C381.123275,104.739 373.217775,107.164 363.000442,107.164 C351.619109,107.164 343.002275,104.254 337.149942,98.434 C331.297609,92.614 328.371442,84.0133333 328.371442,72.632 C328.371442,61.2506667 331.297609,52.65 337.149942,46.83 C343.002275,41.01 351.619109,38.1 363.000442,38.1 Z" id="Path"></path>
                    <path d="M536.517674,106 L536.517674,81.944 C536.517674,78.9693333 536.630841,75.9138333 536.857174,72.7775 C537.083507,69.6411667 537.326007,67.006 537.584674,64.872 C537.843341,62.738 538.005007,61.38 538.069674,60.798 L537.681674,60.798 L525.362674,106 L508.581674,106 L496.165674,60.895 L495.777674,60.895 C495.842341,61.477 496.020174,62.8188333 496.311174,64.9205 C496.602174,67.0221667 496.877007,69.6411667 497.135674,72.7775 C497.394341,75.9138333 497.523674,78.9693333 497.523674,81.944 L497.523674,106 L477.832674,106 L477.832674,39.264 L508.096674,39.264 L518.184674,77.773 L518.572674,77.773 L528.563674,39.264 L557.760674,39.264 L557.760674,106 L536.517674,106 Z" id="Path"></path>
                    <path d="M607.23779,39.264 C611.376457,39.264 615.062457,40.2178333 618.29579,42.1255 C621.529123,44.0331667 624.051123,46.6521667 625.86179,49.9825 C627.672457,53.3128333 628.57779,57.0473333 628.57779,61.186 L628.57779,62.447 C628.57779,66.5856667 627.672457,70.3363333 625.86179,73.699 C624.051123,77.0616667 621.529123,79.6968333 618.29579,81.6045 C615.062457,83.5121667 611.376457,84.466 607.23779,84.466 L591.23279,84.466 L591.23279,106 L569.79579,106 L569.79579,39.264 L607.23779,39.264 Z M591.23279,68.849 L600.05979,68.849 C602.323123,68.849 604.020623,68.267 605.15229,67.103 C606.283957,65.939 606.84979,64.3546667 606.84979,62.35 L606.84979,61.574 C606.84979,59.5046667 606.283957,57.9041667 605.15229,56.7725 C604.020623,55.6408333 602.323123,55.075 600.05979,55.075 L591.23279,55.075 L591.23279,68.849 Z" id="Shape"></path>
                    <polygon id="Path" points="638.866906 39.264 696.581906 39.264 696.581906 55.269 660.303906 55.269 660.303906 64.484 691.343906 64.484 691.343906 79.81 660.303906 79.81 660.303906 89.995 697.260906 89.995 697.260906 106 638.866906 106"></polygon>
                    <path d="M771.279022,59.731 C771.279022,63.805 770.179689,67.491 767.981022,70.789 C765.782355,74.087 762.581355,76.512 758.378022,78.064 L773.219022,106 L749.163022,106 L737.329022,81.653 L729.375022,81.653 L729.375022,106 L707.938022,106 L707.938022,39.264 L748.775022,39.264 C753.560355,39.264 757.650522,40.1855 761.045522,42.0285 C764.440522,43.8715 766.994855,46.3611667 768.708522,49.4975 C770.422189,52.6338333 771.279022,56.045 771.279022,59.731 Z M749.454022,60.604 C749.454022,58.858 748.872022,57.403 747.708022,56.239 C746.544022,55.075 745.121355,54.493 743.440022,54.493 L729.375022,54.493 L729.375022,66.812 L743.440022,66.812 C745.121355,66.812 746.544022,66.2138333 747.708022,65.0175 C748.872022,63.8211667 749.454022,62.35 749.454022,60.604 Z" id="Shape"></path>
                </g>
                <text id="TM" font-family="ArchivoBlack-Regular, Archivo Black" font-size="8" font-weight="normal" letter-spacing="-0.0794131157">
                    <tspan x="755.415413" y="9">TM</tspan>
                </text>
            </g>
        </g>
    </g>
</svg>